<?xml version="1.0" encoding="UTF-8"?>
<svg id="_Слой_1" data-name="Слой 1" xmlns="http://www.w3.org/2000/svg" viewBox="0 0 2000 1990.11">
  <defs>
    <style>
      .cls-1 {
        fill: #010101;
      }
    </style>
  </defs>
  <path class="cls-1" d="m1992.42,934.36c-21.49-83.72-88.28-150.35-190.48-187.47-13.9-5.05-25.09-15.47-30.69-28.58L1503.28,90.87C1479.71,35.67,1425.8,0,1365.94,0h-379.19c-32.68,0-60.81,25.12-62.34,57.77-1.64,34.86,26.13,63.63,60.63,63.63h56.89l103.62,490.46c5.5,25.65-2.77,52.1-22.11,70.76l-139.12,134.22c-18.58,16.68-97.72,92.8-97.72,178.22s79.14,161.53,97.72,178.22l139.12,134.22c19.34,18.66,27.6,45.12,22.07,70.95l-103.58,490.28h-55.11c-32.68,0-60.8,25.11-62.34,57.76-1.64,34.86,26.13,63.64,60.63,63.64h380.91c59.86,0,113.77-35.67,137.34-90.86l267.97-627.44c5.6-13.11,16.78-23.53,30.69-28.58,125.83-45.69,198-136.15,198-248.17l-.59-16.2c-.42-11.43-1.93-22.79-4.53-33.92l-2.47-10.58Zm-231.85,194.76c-45.38,16.47-82.15,51.1-100.9,95l-267.97,627.44c-4.45,10.42-14.53,17.15-25.7,17.15h-200.01l98.24-465.01c14.35-66.96-6.78-135.58-56.52-183.57l-139.96-135.03-1.86-1.72c-23.67-21.01-57.92-64.55-57.92-88.33s33.71-66.6,57.92-88.33l141.81-136.75c49.74-47.99,70.86-116.61,56.55-183.39l-98.28-465.19h199.94c11.16,0,21.25,6.73,25.7,17.15l267.97,627.44c18.75,43.9,55.53,78.53,100.89,95,53.85,19.56,118.04,58.69,118.04,134.06v3.93c-2.18,72.81-65.07,110.92-117.97,130.13Z"/>
  <g>
    <path class="cls-1" d="m646.36,230.84h192.32c35.64,0,64.58,28.94,64.58,64.58h0c0,35.64-28.94,64.58-64.58,64.58h-192.32c-35.64,0-64.58-28.94-64.58-64.58h0c0-35.64,28.94-64.58,64.58-64.58Z"/>
    <path class="cls-1" d="m338.74,591.79h334.13c35.67,0,64.58-28.91,64.58-64.58s-28.91-64.58-64.58-64.58h-334.13c-35.67,0-64.58,28.91-64.58,64.58s28.91,64.58,64.58,64.58Z"/>
    <path class="cls-1" d="m161.43,828.92h385.88c35.67,0,64.58-28.91,64.58-64.58s-28.91-64.58-64.58-64.58H161.43c-35.67,0-64.58,28.91-64.58,64.58s28.91,64.58,64.58,64.58Z"/>
    <path class="cls-1" d="m838.68,1630.11h-192.32c-35.67,0-64.58,28.91-64.58,64.58s28.91,64.58,64.58,64.58h192.32c35.67,0,64.58-28.91,64.58-64.58s-28.91-64.58-64.58-64.58Z"/>
    <path class="cls-1" d="m338.74,1398.32h334.13c35.64,0,64.58,28.94,64.58,64.58h0c0,35.64-28.94,64.58-64.58,64.58h-334.13c-35.64,0-64.58-28.94-64.58-64.58h0c0-35.64,28.94-64.58,64.58-64.58Z"/>
    <path class="cls-1" d="m611.88,1225.77c0-35.67-28.91-64.58-64.58-64.58H161.43c-35.67,0-64.58,28.91-64.58,64.58s28.91,64.58,64.58,64.58h385.88c35.67,0,64.58-28.91,64.58-64.58Z"/>
    <path class="cls-1" d="m493.18,995.06c0-35.67-28.91-64.58-64.58-64.58H64.58c-35.67,0-64.58,28.91-64.58,64.58s28.91,64.58,64.58,64.58h364.02c35.67,0,64.58-28.91,64.58-64.58Z"/>
  </g>
</svg>